{"title":"True Detective S02E08 1080p HDTV DD5 1 HEVC x265-DTG","uid":12219096,"size":2807931898,"categoryP":"video","categoryS":"hd___tv_shows","magnet":"?xt=urn:btih:be982c32e8610035c98a444f2804b3e6bdbf63c8&amp;dn=True+Detective+S02E08+1080p+HDTV+DD5+1+HEVC+x265-DTG&amp;tr=udp%3A%2F%2Ftracker.openbittorrent.com%3A80&amp;tr=udp%3A%2F%2Fopen.demonii.com%3A1337&amp;tr=udp%3A%2F%2Ftracker.coppersurfer.tk%3A6969&amp;tr=udp%3A%2F%2Fexodus.desync.com%3A6969","seeders":0,"leechers":1,"uploader":"D3tergent","files":1,"time":1439315983,"description":"WARNING : This episode is encoded with the new generation video codec HEVC. It will probably not work on your TV or BD player unless it's a recent one that supports it ! (or unless you plug a computer to your TV via HDMI)\n\nTrue Detective - S02E08 - Omega Station\n\n\nVideo : HEVC, 1920x1078\nAudio : AC3, 5.1, 384 kb/s\nSubtitles : English\n\nSource : True Detective S02E08 1080i HDTV MPEG2 DD5.1-CtrlHD\n\nIf you have trouble playing this file on your computer, get MPC-HC (recommended) or the latest VLC.\n\nFormat : Matroska\nFormat version : Version 4 / Version 2\nFile size : 2.62 GiB\nDuration : 1h 26mn\nOverall bit rate : 4 308 Kbps\nEncoded date : UTC 2015-08-11 15:54:00\nWriting application : mkvmerge v8.2.0 ('World of Adventure') 64bit\nWriting library : libebml v1.3.1 + libmatroska v1.4.2\nDURATION : 01:26:26.758000000\nNUMBER_OF_FRAMES : 923\nNUMBER_OF_BYTES : 26073\n_STATISTICS_WRITING_APP : mkvmerge v8.2.0 ('World of Adventure') 64bit\n_STATISTICS_WRITING_DATE_UTC : 2015-08-11 15:54:00\n_STATISTICS_TAGS : BPS DURATION NUMBER_OF_FRAMES NUMBER_OF_BYTES\n\nVideo\nID : 1\nFormat : HEVC\nFormat/Info : High Efficiency Video Coding\nFormat profile : &lt;a class=&quot;__cf_email__&quot; href=&quot;/cdn-cgi/l/email-protection&quot; data-cfemail=&quot;e6ab878f88a6aad2c8d6&quot;&gt;[email&amp;#160;protected]&lt;/a&gt;&lt;script data-cfhash='f9e31' type=&quot;text/javascript&quot;&gt;\n/* &lt;![CDATA[ */!function(){try{var t=&quot;currentScript&quot;in document?document.currentScript:function(){for(var t=document.getElementsByTagName(&quot;script&quot;),e=t.length;e--;)if(t[e].getAttribute(&quot;data-cfhash&quot;))return t[e]}();if(t&amp;&amp;t.previousSibling){var e,r,n,i,c=t.previousSibling,a=c.getAttribute(&quot;data-cfemail&quot;);if(a){for(e=&quot;&quot;,r=parseInt(a.substr(0,2),16),n=2;a.length-n;n+=2)i=parseInt(a.substr(n,2),16)^r,e+=String.fromCharCode(i);e=document.createTextNode(e),c.parentNode.replaceChild(e,c)}t.parentNode.removeChild(t);}}catch(u){}}()/* ]]&gt; */&lt;/script&gt;\nCodec ID : V_MPEGH/ISO/HEVC\nDuration : 1h 26mn\nBit rate : 3 839 Kbps\nWidth : 1 920 pixels\nHeight : 1 078 pixels\nDisplay aspect ratio : 16:9\nFrame rate mode : Constant\nFrame rate : 23.976 fps\nColor space : YUV\nChroma subsampling : 4:2:0\nBit depth : 8 bits\nBits/(Pixel*Frame) : 0.077\nStream size : 2.33 GiB (89%)\nWriting library : x265 1.7+386-8b1ce9d894d2:[Linux][GCC 4.9.2][64 bit] 8bit\nEncoding settings : wpp / ctu=64 / min-cu-size=8 / max-tu-size=32 / tu-intra-depth=1 / tu-inter-depth=1 / me=3 / subme=3 / merange=57 / no-rect / no-amp / max-merge=3 / temporal-mvp / no-early-skip / rdpenalty=0 / no-tskip / no-tskip-fast / strong-intra-smoothing / no-lossless / no-cu-lossless / no-constrained-intra / no-fast-intra / open-gop / no-temporal-layers / interlace=0 / keyint=250 / min-keyint=23 / scenecut=40 / rc-lookahead=25 / lookahead-slices=0 / bframes=5 / bframe-bias=0 / b-adapt=2 / ref=3 / limit-refs=0 / weightp / no-weightb / aq-mode=1 / qg-size=64 / aq-strength=1.00 / cbqpoffs=0 / crqpoffs=0 / rd=4 / psy-rd=0.30 / rdoq-level=2 / psy-rdoq=1.00 / signhide / deblock / sao / no-sao-non-deblock / b-pyramid / cutree / rc=crf / crf=20.0 / qcomp=0.60 / qpmin=0 / qpmax=51 / qpstep=4 / ipratio=1.40 / pbratio=1.30\nDefault : Yes\nForced : No\n\nAudio\nID : 2\nFormat : AC-3\nFormat/Info : Audio Coding 3\nMode extension : CM (complete main)\nFormat settings, Endianness : Big\nCodec ID : A_AC3\nDuration : 1h 26mn\nBit rate mode : Constant\nBit rate : 384 Kbps\nChannel(s) : 6 channels\nChannel positions : Front: L C R, Side: L R, LFE\nSampling rate : 48.0 KHz\nBit depth : 16 bits\nCompression mode : Lossy\nStream size : 239 MiB (9%)\nDefault : Yes\nForced : No\n\nText\nID : 3\nFormat : UTF-8\nCodec ID : S_TEXT/UTF8\nCodec ID/Info : UTF-8 Plain Text\nDefault : Yes\nForced : No","torrent":{"xt":"urn:btih:be982c32e8610035c98a444f2804b3e6bdbf63c8","amp;dn":"True+Detective+S02E08+1080p+HDTV+DD5+1+HEVC+x265-DTG","amp;tr":["udp%3A%2F%2Ftracker.openbittorrent.com%3A80","udp%3A%2F%2Fopen.demonii.com%3A1337","udp%3A%2F%2Ftracker.coppersurfer.tk%3A6969","udp%3A%2F%2Fexodus.desync.com%3A6969"],"infoHash":"be982c32e8610035c98a444f2804b3e6bdbf63c8","infoHashBuffer":{"type":"Buffer","data":[190,152,44,50,232,97,0,53,201,138,68,79,40,4,179,230,189,191,99,200]},"announce":[],"urlList":[]}}